 <svg  version="1.0" xmlns="http://www.w3.org/2000/svg"  width="600.000000pt" height="600.000000pt" viewBox="0 0 600.000000 600.000000"  preserveAspectRatio="xMidYMid meet">  <g transform="translate(0.000000,600.000000) scale(0.100000,-0.100000)" fill="#8b1538" stroke="none"> <path d="M3264 5245 c-1 -5 -5 -165 -8 -355 -5 -348 -23 -672 -50 -920 -19 -163 -42 -330 -50 -350 -3 -8 -10 -42 -15 -75 -12 -75 -56 -262 -81 -350 -17 -59 -100 -307 -110 -330 -40 -91 -50 -115 -50 -121 0 -4 -32 -70 -71 -148 -73 -145 -170 -312 -248 -426 -43 -64 -189 -260 -200 -270 -3 -3 -28 -32 -56 -65 -27 -33 -76 -88 -109 -122 l-59 -62 6 -53 c5 -48 17 -112 32 -175 3 -13 11 -23 18 -23 6 0 47 36 89 79 62 62 272 221 293 221 3 0 33 13 67 29 158 72 371 121 519 121 73 0 260 -31 332 -54 131 -42 284 -140 385 -245 73 -77 244 -303 297 -393 5 -10 34 -56 63 -103 28 -48 52 -90 52 -95 0 -14 -166 -155 -243 -206 -61 -41 -236 -134 -252 -134 -4 0 -21 -6 -38 -14 -40 -18 -127 -43 -192 -57 -268 -54 -639 -29 -832 57 -17 8 -35 14 -41 14 -14 0 -118 57 -181 100 -67 46 -187 163 -246 240 -157 208 -245 444 -293 790 -13 97 -16 293 -21 1240 -3 619 -3 1135 1 1148 8 22 12 23 102 21 52 -1 99 2 105 5 13 9 14 33 2 40 -12 8 -1579 8 -1591 1 -13 -8 -13 -32 1 -41 6 -3 53 -6 103 -5 67 1 96 -2 104 -12 8 -9 12 -252 15 -843 4 -786 11 -980 36 -1119 6 -33 15 -85 21 -115 9 -51 21 -103 49 -220 6 -25 15 -54 20 -65 5 -11 19 -47 30 -80 40 -121 94 -236 166 -356 51 -84 93 -147 105 -159 3 -3 19 -25 35 -50 35 -52 228 -250 295 -302 146 -113 314 -211 469 -274 47 -19 95 -39 106 -44 11 -5 52 -18 90 -30 39 -12 86 -26 105 -32 19 -6 53 -15 75 -19 22 -4 83 -17 135 -29 186 -40 469 -63 700 -57 183 5 225 11 390 49 98 22 264 81 330 117 8 4 47 25 85 45 68 37 208 137 289 207 21 19 44 34 50 34 13 0 49 -54 113 -170 28 -49 59 -106 70 -125 l20 -35 168 -3 c93 -1 175 0 182 2 11 5 -188 314 -368 571 -54 77 -141 203 -190 275 -42 61 -78 113 -106 149 -151 205 -358 384 -533 463 -68 30 -89 38 -102 38 -8 0 -18 4 -24 9 -5 5 -31 14 -59 20 -27 5 -72 15 -100 21 -69 16 -418 17 -472 2 -24 -7 -61 -17 -83 -22 -53 -13 -250 -100 -250 -110 0 -4 -8 -10 -17 -14 -10 -3 -24 -9 -30 -12 -9 -4 -13 3 -13 20 0 14 4 26 8 26 14 0 189 249 250 355 45 80 154 302 189 385 19 47 42 99 49 117 8 17 14 36 14 42 0 6 4 19 10 29 15 26 82 237 120 377 38 139 47 178 65 260 9 44 21 96 26 117 5 20 14 69 19 110 6 40 15 96 20 123 5 28 9 79 9 115 1 73 13 95 43 79 14 -8 18 -22 18 -67 1 -31 5 -88 11 -127 5 -38 14 -102 19 -142 10 -78 18 -125 56 -318 41 -207 44 -217 54 -249 5 -17 17 -58 26 -91 23 -80 102 -322 119 -360 7 -16 29 -70 50 -120 105 -256 277 -562 458 -817 161 -227 324 -461 397 -568 6 -8 45 -64 86 -125 42 -60 113 -164 158 -230 44 -66 83 -122 86 -125 3 -3 36 -51 73 -107 l69 -103 239 0 c155 0 239 4 239 10 0 9 -50 76 -154 204 -101 126 -613 803 -700 926 -33 47 -83 119 -110 160 -28 41 -53 77 -57 80 -3 3 -23 34 -44 70 -21 36 -55 90 -74 120 -50 77 -60 92 -71 115 -6 11 -26 47 -45 80 -65 112 -249 491 -261 540 -3 14 -10 28 -15 31 -5 3 -9 13 -9 22 0 9 -7 30 -15 46 -8 15 -15 33 -15 40 0 6 -6 23 -14 38 -8 15 -17 41 -21 59 -4 19 -11 40 -15 49 -4 8 -15 42 -25 75 -9 33 -23 78 -30 100 -18 56 -53 205 -88 375 -74 350 -118 776 -138 1320 -6 168 -14 309 -18 313 -12 12 -393 14 -397 2z"/> <path d="M4848 4212 l-198 -2 0 -25 0 -25 114 0 c79 0 117 -4 124 -13 7 -8 11 -320 13 -957 2 -925 -2 -1106 -30 -1220 -31 -125 -55 -206 -62 -214 -17 -19 -8 -47 32 -104 22 -31 49 -72 61 -89 11 -18 24 -33 29 -33 11 0 69 90 69 107 0 6 8 26 17 45 27 53 29 59 52 138 12 41 28 97 36 124 8 26 15 58 15 71 0 12 4 35 10 51 9 27 14 64 40 259 5 39 9 458 10 933 0 846 1 863 20 882 17 17 34 20 125 20 l105 0 0 25 c0 14 -6 25 -12 26 -59 2 -412 3 -570 1z"/> </g> </svg> 